{"title":"X-Men Apocalypse 2016 720p HDCAM x264 HQMic-Exclusive","uid":14672542,"size":1308074366,"categoryP":"video","categoryS":"movies","magnet":"?xt=urn:btih:6a25a05d5c200878540d956829ce29ed97d3649b&amp;dn=X-Men+Apocalypse+2016+720p+HDCAM+x264+HQMic-Exclusive&amp;tr=udp%3A%2F%2Ftracker.leechers-paradise.org%3A6969&amp;tr=udp%3A%2F%2Fzer0day.ch%3A1337&amp;tr=udp%3A%2F%2Fopen.demonii.com%3A1337&amp;tr=udp%3A%2F%2Ftracker.coppersurfer.tk%3A6969&amp;tr=udp%3A%2F%2Fexodus.desync.com%3A6969","seeders":33,"leechers":8,"uploader":"makintos13","files":2,"time":1463888909,"description":"X-Men Apocalypse 2016 720p HDCAM x264 HQMic-Exclusive\r\n \nhttps://imgmak.com/TPw\r\n \nhttps://imgmak.com/TPJ\r\n \nhttps://imgmak.com/TPW\r\n \nhttps://imgmak.com/TPd\r\n \nhttps://imgmak.com/TPs\r\n \nhttps://imgmak.com/TP4\r\n\r\n\r\nNew HQMic Audio definitely better then any other cam audio available right now. Post credit scene added, Full movie except starting intro is missing..\r\n\r\nSource: Portuguese720p and JzyB Audio thx.\r\nSample: yes included\r\n\r\nFormat : Matroska\r\nFormat version : Version 4 / Version 2\r\nFile size : 1.20 GiB\r\nDuration : 2h 11mn\r\nOverall bit rate : 1 311 Kbps\r\n\r\n\r\nVideo\r\nID : 1\r\nFormat : AVC\r\nFormat/Info : Advanced Video Codec\r\nFormat profile :   \r\nFormat settings, CABAC : Yes\r\nFormat settings, ReFrames : 5 frames\r\nCodec ID : V_MPEG4/ISO/AVC\r\nDuration : 2h 11mn\r\nBit rate : 1 199 Kbps\r\nWidth : 1 264 pixels\r\nHeight : 512 pixels\r\nDisplay aspect ratio : 2.469\r\nFrame rate mode : Constant\r\nFrame rate : 23.976 (24000/1001) fps\r\nColor space : YUV\r\nChroma subsampling : 4:2:0\r\nBit depth : 8 bits\r\nScan type : Progressive\r\nBits/(Pixel*Frame) : 0.077\r\nStream size : 1.06 GiB (88%)\r\n\r\n\r\nAudio\r\nID : 2\r\nFormat : MPEG Audio\r\nFormat version : Version 1\r\nFormat profile : Layer 3\r\nCodec ID : A_MPEG/L3\r\nCodec ID/Hint : MP3\r\nDuration : 2h 11mn\r\nBit rate mode : Constant\r\nBit rate : 128 Kbps\r\nChannel(s) : 2 channels\r\nSampling rate : 44.1 KHz\r\nCompression mode : Lossy\r\nDelay relative to video : 200ms\r\nStream size : 120 MiB (10%)\r\nWriting library : LAME3.99.5\r\nDefault : Yes","torrent":{"xt":"urn:btih:6a25a05d5c200878540d956829ce29ed97d3649b","amp;dn":"X-Men+Apocalypse+2016+720p+HDCAM+x264+HQMic-Exclusive","amp;tr":["udp%3A%2F%2Ftracker.leechers-paradise.org%3A6969","udp%3A%2F%2Fzer0day.ch%3A1337","udp%3A%2F%2Fopen.demonii.com%3A1337","udp%3A%2F%2Ftracker.coppersurfer.tk%3A6969","udp%3A%2F%2Fexodus.desync.com%3A6969"],"infoHash":"6a25a05d5c200878540d956829ce29ed97d3649b","infoHashBuffer":{"type":"Buffer","data":[106,37,160,93,92,32,8,120,84,13,149,104,41,206,41,237,151,211,100,155]},"announce":[],"urlList":[]}}